@startuml
class "xferBenchRTReq" as C_0011301357828256934590
class C_0011301357828256934590 {
__
}
abstract "xferBenchRT" as C_0004918407172655516683
abstract C_0004918407172655516683 {
+~xferBenchRT() : void
..
{abstract} +barrier(const std::string & barrier_id) = 0 : int
{abstract} +broadcastInt(int * buffer, size_t count, int root_rank) = 0 : int
+getRank() const : int
+getSize() const : int
{abstract} +recvChar(char * buffer, size_t count, int src_rank) = 0 : int
{abstract} +recvInt(int * buffer, int src_rank) = 0 : int
{abstract} +reduceSumDouble(double * local_value, double * global_value, int dest_rank) = 0 : int
{abstract} +sendChar(char * buffer, size_t count, int dest_rank) = 0 : int
{abstract} +sendInt(int * buffer, int dest_rank) = 0 : int
#setRank(int r) : void
#setSize(int s) : void
__
-rank : int
-size : int
}
class "xferBenchConfig" as C_0014275962526275457606
class C_0014275962526275457606 {
{static} +isObjStorageBackend() : bool
{static} +isStorageBackend() : bool
{static} #loadParams() : int
{static} +parseConfig(int argc, char ** argv) : int
{static} +parseDeviceList() : std::vector<std::string>
{static} +printConfig() : void
{static} +printOption(const std::string & desc, const std::string & value) : void
{static} +printSeparator(const char sep = '-') : void
__
{static} +azure_blob_account_url : std::string
{static} +azure_blob_connection_string : std::string
{static} +azure_blob_container_name : std::string
{static} +backend : std::string
{static} +benchmark_group : std::string
{static} +check_consistency : bool
{static} +device_list : std::string
{static} +enable_pt : bool
{static} +enable_vmm : bool
{static} +etcd_endpoints : std::string
{static} +filenames : std::string
{static} +filepath : std::string
{static} +gds_batch_limit : int
{static} +gds_batch_pool_size : int
{static} +gds_mt_num_threads : int
{static} +gpunetio_device_list : std::string
{static} +gpunetio_oob_list : std::string
{static} +gusli_client_name : std::string
{static} +gusli_config_file : std::string
{static} +gusli_device_byte_offsets : std::string
{static} +gusli_device_security : std::string
{static} +gusli_max_simultaneous_requests : int
{static} +hf3fs_iopool_size : int
{static} +initiator_seg_type : std::string
{static} +large_blk_iter_ftr : int
{static} +max_batch_size : size_t
{static} +max_block_size : size_t
{static} +mode : std::string
{static} +num_files : int
{static} +num_initiator_dev : int
{static} +num_iter : int
{static} +num_target_dev : int
{static} +num_threads : int
{static} +obj_accelerated_enable : bool
{static} +obj_accelerated_type : std::string
{static} +obj_access_key : std::string
{static} +obj_bucket_name : std::string
{static} +obj_ca_bundle : std::string
{static} +obj_crt_min_limit : size_t
{static} +obj_endpoint_override : std::string
{static} +obj_region : std::string
{static} +obj_req_checksum : std::string
{static} +obj_scheme : std::string
{static} +obj_secret_key : std::string
{static} +obj_session_token : std::string
{static} +obj_use_virtual_addressing : bool
{static} +op_type : std::string
{static} +page_size : long
{static} +posix_api_type : std::string
{static} +posix_ios_pool_size : int
{static} +posix_kernel_queue_size : int
{static} +progress_threads : size_t
{static} +recreate_xfer : bool
{static} +runtime_type : std::string
{static} +scheme : std::string
{static} +start_batch_size : size_t
{static} +start_block_size : size_t
{static} +storage_enable_direct : bool
{static} +target_seg_type : std::string
{static} +total_buffer_size : size_t
{static} +warmup_iter : int
{static} +worker_type : std::string
}
class "GusliDeviceConfig" as C_0014020575335405222372
class C_0014020575335405222372 {
__
+dev_offset : size_t
+device_id : int
+device_path : std::string
+device_type : char
+security_flags : std::string
}
class "xferBenchTimer" as C_0012771839826129664817
class C_0012771839826129664817 {
+xferBenchTimer() : void
..
+lap() : nixlTime::us_t
__
-start_ : nixlTime::us_t
}
class "xferMetricStats" as C_0002181968609780657441
class C_0002181968609780657441 {
+add(double value) : void
+add(const xferMetricStats & other) : void
+avg() const : double
+clear() : void
+max() const : double
+min() const : double
+p90() : double
+p95() : double
+p99() : double
+reserve(size_t n) : void
__
-samples : std::vector<double>
}
class "xferBenchStats" as C_0005759465391255274908
class C_0005759465391255274908 {
+add(const xferBenchStats & other) : void
+clear() : void
+reserve(size_t n) : void
__
+post_duration : xferMetricStats
+prepare_duration : xferMetricStats
+total_duration : xferMetricStats
+transfer_duration : xferMetricStats
}
class "xferBenchIOV" as C_0001689641023860137513
class C_0001689641023860137513 {
+xferBenchIOV(uintptr_t a, size_t l, int d) : void
+xferBenchIOV(uintptr_t a, size_t l, int d, size_t p, unsigned long long h) : void
+xferBenchIOV(uintptr_t a, size_t l, int d, std::string m) : void
__
+addr : uintptr_t
+devId : int
+handle : unsigned long long
+len : size_t
+metaInfo : std::string
+padded_size : size_t
}
class "xferBenchUtils" as C_0010619425233056848994
class C_0010619425233056848994 {
{static} +buildAwsCredentials() : std::string
{static} -buildCommonAzCliBlobParams(const std::string & blob_name) : std::string
{static} +checkConsistency(std::vector<std::vector<xferBenchIOV>> & desc_lists) : bool
{static} -cleanupFile(const int fd, const std::string & filename) : void
{static} -createFile(size_t buffer_size, const std::string & filename) : int
{static} +getDevToUse() : std::string
{static} +getObj(const std::string & name) : bool
{static} -getObjAzure(const std::string & name) : bool
{static} +getObjS3(const std::string & name) : bool
{static} +printStats(bool is_target, size_t block_size, size_t batch_size, xferBenchStats stats) : void
{static} +printStatsHeader() : void
{static} +putObj(size_t buffer_size, const std::string & name) : bool
{static} -putObjAzure(size_t buffer_size, const std::string & name) : bool
{static} +putObjS3(size_t buffer_size, const std::string & name) : bool
{static} +rmObj(const std::string & name) : bool
{static} -rmObjAzure(const std::string & name) : bool
{static} +rmObjS3(const std::string & name) : bool
{static} +setDevToUse(std::string dev) : void
{static} +setRT(xferBenchRT * rt) : void
{static} +validateTransfer(bool is_initiator, std::vector<std::vector<xferBenchIOV>> & local_lists, std::vector<std::vector<xferBenchIOV>> & remote_lists) : bool
__
{static} -dev_to_use : std::string
{static} -rt : xferBenchRT *
}
abstract "xferBenchWorker" as C_0008961845890843614694
abstract C_0008961845890843614694 {
+xferBenchWorker(int * argc, char *** argv) : void
+~xferBenchWorker() : void
..
{abstract} +allocateMemory(int num_threads) = 0 : std::vector<std::vector<xferBenchIOV>>
{abstract} +deallocateMemory(std::vector<std::vector<xferBenchIOV>> & iov_lists) = 0 : void
{abstract} +exchangeIOV(const std::vector<std::vector<xferBenchIOV>> & local_iov_lists, size_t block_size) = 0 : std::vector<std::vector<xferBenchIOV>>
{abstract} +exchangeMetadata() = 0 : int
+getName() const : std::string
+isInitiator() : bool
+isMasterRank() : bool
+isTarget() : bool
{abstract} +poll(size_t block_size) = 0 : void
{static} +signalHandler(int signal) : void
+signaled() const : bool
+synchronize() : int
{abstract} +synchronizeStart() = 0 : int
{abstract} +transfer(size_t block_size, const std::vector<std::vector<xferBenchIOV>> & local_iov_lists, const std::vector<std::vector<xferBenchIOV>> & remote_iov_lists) = 0 : std::variant<xferBenchStats,int>
__
#name : std::string
#rt : xferBenchRT *
{static} #terminate : int
}
class "xferFileState" as C_0006881856633518963915
class C_0006881856633518963915 {
__
+fd : int
+file_size : uint64_t
+offset : uint64_t
}
class "xferBenchNixlWorker" as C_0010377906754271562473
class C_0010377906754271562473 {
+xferBenchNixlWorker(int * argc, char *** argv, std::vector<std::string> devices) : void
+~xferBenchNixlWorker() : void
..
+allocateMemory(int num_threads) : std::vector<std::vector<xferBenchIOV>>
-cleanupBasicDescBlk(xferBenchIOV & basic_desc) : void
-cleanupBasicDescDram(xferBenchIOV & basic_desc) : void
-cleanupBasicDescFile(xferBenchIOV & basic_desc) : void
-cleanupBasicDescObj(xferBenchIOV & basic_desc) : void
-cleanupBasicDescVram(xferBenchIOV & basic_desc) : void
+deallocateMemory(std::vector<std::vector<xferBenchIOV>> & iov_lists) : void
-ensureFileHasConsistencyData(const GusliDeviceConfig & device, size_t size) : bool
+exchangeIOV(const std::vector<std::vector<xferBenchIOV>> & local_iov_lists, size_t block_size) : std::vector<std::vector<xferBenchIOV>>
+exchangeMetadata() : int
-initBasicDescBlk(size_t buffer_size, int mem_dev_id, size_t dev_offset) : std::optional<xferBenchIOV>
-initBasicDescDram(size_t buffer_size, int mem_dev_id) : std::optional<xferBenchIOV>
-initBasicDescFile(size_t buffer_size, xferFileState & fstate, int mem_dev_id) : std::optional<xferBenchIOV>
-initBasicDescObj(size_t buffer_size, int mem_dev_id, std::string name) : std::optional<xferBenchIOV>
-initBasicDescVram(size_t buffer_size, int mem_dev_id) : std::optional<xferBenchIOV>
+poll(size_t block_size) : void
+synchronizeStart() : int
+transfer(size_t block_size, const std::vector<std::vector<xferBenchIOV>> & local_iov_lists, const std::vector<std::vector<xferBenchIOV>> & remote_iov_lists) : std::variant<xferBenchStats,int>
__
-agent : nixlAgent *
-backend_engine : nixlBackendH *
-gusli_devices : std::vector<GusliDeviceConfig>
-remote_fds : std::vector<xferFileState>
-remote_iovs : std::vector<std::vector<xferBenchIOV>>
-seg_type : nixl_mem_t
}
class "xferBenchEtcdRT" as C_0002946610613565569507
class C_0002946610613565569507 {
+xferBenchEtcdRT(const std::string & benchmark_group, const std::string & etcd_endpoints, const int size, int * terminate = nullptr) : void
+~xferBenchEtcdRT() : void
..
+barrier(const std::string & barrier_id) : int
+broadcastInt(int * buffer, size_t count, int root_rank) : int
-error() const : bool
+getRank() const : int
+getSize() const : int
-makeKey(std::string name, int rank = -1) const : std::string
-makeTypedKey(const std::string & operation, int src, int dst, xferBenchEtcdMsgType type = XFER_BENCH_ETCD_MSG_TYPE_INT) : std::string
+recvChar(char * buffer, size_t count, int src_rank) : int
+recvInt(int * buffer, int src_rank) : int
+reduceSumDouble(double * local_value, double * global_value, int dest_rank) : int
+sendChar(char * buffer, size_t count, int dest_rank) : int
+sendInt(int * buffer, int dest_rank) : int
+setup() : int
-should_retry(int value, int max = 60) const : bool
__
-barrier_gen : uint64_t
-benchmark_group : std::string
-client : std::unique_ptr<etcd::SyncClient>
-global_size : int
-my_rank : int
-namespace_prefix : std::string
-stored_etcd_endpoints : std::string
-terminate : int *
}
C_0011301357828256934590 <.. C_0004918407172655516683 : +<<friend>>
C_0005759465391255274908 o-- C_0002181968609780657441 : +total_duration
C_0005759465391255274908 o-- C_0002181968609780657441 : +prepare_duration
C_0005759465391255274908 o-- C_0002181968609780657441 : +post_duration
C_0005759465391255274908 o-- C_0002181968609780657441 : +transfer_duration
C_0010619425233056848994 ..> C_0001689641023860137513
C_0010619425233056848994 ..> C_0005759465391255274908
C_0010619425233056848994 --> C_0004918407172655516683 : -rt
C_0008961845890843614694 ..> C_0001689641023860137513
C_0008961845890843614694 ..> C_0005759465391255274908
C_0008961845890843614694 --> C_0004918407172655516683 : #rt
C_0010377906754271562473 ..> C_0005759465391255274908
C_0010377906754271562473 o-- C_0006881856633518963915 : -remote_fds
C_0010377906754271562473 o-- C_0001689641023860137513 : -remote_iovs
C_0010377906754271562473 o-- C_0014020575335405222372 : -gusli_devices
C_0008961845890843614694 <|-- C_0010377906754271562473
C_0004918407172655516683 <|-- C_0002946610613565569507
hide empty members
skinparam classAttributeIconSize 0

'Generated with clang-uml, version 0.6.2
'LLVM version Ubuntu clang version 18.1.3 (1ubuntu1)
@enduml
